<svg class="inline-block" id="cybercrime-icon" xmlns="http://www.w3.org/2000/svg" viewBox="0 0 430 430">
    <defs>
        <style>
            .cybercrime-cls-1{fill:#fff}
        </style>
    </defs>
    <circle cx="215" cy="215" r="210" style="fill:#6e267b"/>
    <path class="cybercrime-cls-1" d="m341.15 271.59-17.65-44.13c-2.3-5.75-6.24-10.61-11.45-14.08l-32.42-20.79c5.16-8.05 8.5-16.83 8.5-26.41 0-45.34-33.74-100.73-73.13-100.73s-73.13 55.39-73.13 100.73c0 9.58 3.33 18.36 8.5 26.41l-32.48 20.83c-5.16 3.43-9.1 8.29-11.4 14.04l-17.66 44.13c-4.78 11.95-1.5 25.69 8.22 34.25l47.87 40.61c.78.66 1.72.98 2.66.98 1.17 0 2.33-.5 3.14-1.45a4.122 4.122 0 0 0-.48-5.81l-47.81-40.56c-7.05-6.21-9.44-16.23-5.95-24.95l17.66-44.13c1.68-4.2 4.55-7.74 8.25-10.2l32.77-21.02c10.22 12.74 24.54 23.44 36.4 32.29 3.24 2.43 6.3 4.71 9.02 6.84a4.114 4.114 0 0 0 5.78-.69 4.121 4.121 0 0 0-.69-5.79c-2.76-2.18-5.88-4.5-9.18-6.96-19.57-14.62-46.38-34.63-46.38-58.81 0-4.96 7.33-11.24 19.99-16.07l3.27 27.92c.99 7.87 5.34 14.91 11.93 19.3l14.7 9.81c4.59 3.06 9.86 4.59 15.12 4.59s10.53-1.53 15.12-4.6l14.7-9.8c6.6-4.4 10.95-11.43 11.94-19.33l3.26-27.8c12.51 4.82 19.75 11.05 19.75 15.98 0 24.19-26.81 44.2-46.38 58.81-3.31 2.47-6.42 4.79-9.18 6.97a4.121 4.121 0 0 0 5.09 6.48c2.72-2.14 5.77-4.42 9.02-6.84 11.85-8.85 26.18-19.55 36.4-32.29l32.71 20.98c3.76 2.5 6.63 6.04 8.31 10.24l17.65 44.13c3.49 8.72 1.1 18.75-5.9 24.9l-47.87 40.61a4.13 4.13 0 0 0-.48 5.81c.81.96 1.98 1.45 3.14 1.45.94 0 1.89-.32 2.66-.98l47.93-40.66c9.66-8.5 12.94-22.24 8.15-34.2ZM248.7 177c-.69 5.49-3.72 10.4-8.33 13.47l-14.7 9.8a18.995 18.995 0 0 1-21.11 0l-14.7-9.81c-4.6-3.06-7.63-7.97-8.32-13.43l-3.46-29.57c10.14-2.86 22.63-4.77 36.92-4.77s26.98 1.93 37.16 4.83L248.7 177ZM215 134.46c-26.85 0-50.84 6.67-63.55 16.32 6.23-37.3 33.43-77.09 63.55-77.09s57.32 39.8 63.55 77.09c-12.71-9.64-36.7-16.32-63.55-16.32Z"/>
    <path class="cybercrime-cls-1" d="M298.32 234.76a10.71 10.71 0 0 0-8.08-3.68H139.76c-3.1 0-6.05 1.35-8.08 3.68a10.757 10.757 0 0 0-2.53 8.51l12.72 91.01v4.74c0 5.91 4.8 10.71 10.71 10.71h124.84c5.91 0 10.71-4.8 10.71-10.71v-4.74l12.71-91.01c.43-3.07-.49-6.17-2.53-8.51Zm-18.43 104.26c0 1.36-1.11 2.47-2.47 2.47H152.58c-1.36 0-2.47-1.11-2.47-2.47v-.92h129.78v.92Zm.53-9.16H149.57l-12.26-87.74c-.14-.97.31-1.64.58-1.96.28-.32.89-.85 1.87-.85h150.48c.98 0 1.59.53 1.86.85.28.32.72.99.58 1.96l-12.26 87.74Z"/>
    <path class="cybercrime-cls-1" d="M215 272.48c-9.88 0-17.92 8.04-17.92 17.93s8.04 17.92 17.92 17.92 17.92-8.04 17.92-17.92-8.04-17.93-17.92-17.93Zm0 27.6c-5.34 0-9.68-4.34-9.68-9.68s4.34-9.69 9.68-9.69 9.68 4.34 9.68 9.69-4.34 9.68-9.68 9.68Z"/>
</svg>
