<svg class="inline-block" id="extreem-geweld-icon" xmlns="http://www.w3.org/2000/svg" viewBox="0 0 430 430">
    <defs>
        <style>
            .extreem-geweld-cls-2,.extreem-geweld-cls-3{fill:none;stroke:#fff;stroke-miterlimit:10;stroke-width:10px}.extreem-geweld-cls-3{stroke-linecap:round}
        </style>
    </defs>
    <circle cx="215" cy="215" r="210" style="fill:#6e267b"/>
    <path class="extreem-geweld-cls-2" d="M195.06 152.19c1.19-.83 29.29-20.3 43.71-10.84 13.89 9.11 46.83 67.74 53.79 87.44 2.96 8.37-4.28 17.27-12.96 21.74-.63.32-1.28.63-1.95.92-8.79 3.8-20.7 4.24-28.02-6.19"/>
    <path class="extreem-geweld-cls-2" d="M184.62 278.34c-.25.33-5.15 6.6-12.31 9.69-1.8.78-3.74 1.35-5.79 1.58-4.88.55-9.49-.95-13.71-4.45-17.7-14.68-33.72-39.44-34.83-41.17-12.92-17.46-6.51-28.75-.32-39.68 2.17-3.83 4.42-7.79 5.94-12.11 5.93-16.78 26.35-22.83 29.84-23.75 3.32-2.74 26.63-21.27 46.86-18.7"/>
    <path class="extreem-geweld-cls-2" d="M172.46 202.64c.31.46 31.29 46.21 47.56 61.47 2.7 2.53 14.48.58 22.83-4.88 3.42-2.24 8.87-6.82 6.89-12.42-5.36-15.17-13.97-31.38-35.43-66.74M219.98 264.26c.91.66 1.11 1.92.45 2.83-.32.44-6.75 9.17-15.75 13.06-1.73.75-3.56 1.32-5.46 1.61-4.99.77-9.7-.45-14.01-3.62-19.82-14.61-37.54-43.03-38.28-44.23"/>
    <path class="extreem-geweld-cls-2" d="M289.36 242.22c2.12-.91 2.48-1.41 4.81 3.32 3.04 6.17 3.22 17.14-5.88 22.2-3.22 1.79-7.88 3.95-13.41 6.34-8.85 3.82-19.89 8.2-30.71 12.49-7.16 2.84-14.56 5.77-20.97 8.41-4.57 1.88-8.84 1.89-12.68.04-7.84-3.78-10.87-14.03-10.99-14.47"/>
    <path class="extreem-geweld-cls-3" d="m54.88 220.48 38.83 7.84M88.94 306.47l23.26-31.42M35.13 281.21s.02 0 .03-.01l52.08-21.38M272.43 144.52l23.72-34.84M293.63 190.08l41.61 3.42M299.74 161.47l54.07-24.43s.02 0 .03-.01"/>
</svg>
