<svg class="inline-block" id="verstoring-gasvoorziening-icon" xmlns="http://www.w3.org/2000/svg" viewBox="0 0 430 430"></svg>
  <defs>
    <style>
      .verstoring-gasvoorziening-cls-1 {
        fill: #ae7d5b;
      }

      .verstoring-gasvoorziening-cls-2 {
        fill: none;
        stroke: #fff;
        stroke-linecap: round;
        stroke-linejoin: round;
        stroke-width: 10px;
      }
    </style>
  </defs>
  <circle class="verstoring-gasvoorziening-cls-1" cx="215" cy="215" r="210"></circle>
  <g>
    <rect class="verstoring-gasvoorziening-cls-2" x="178.89" y="179.64" width="68.54" height="68.54"></rect>
    <path class="verstoring-gasvoorziening-cls-2" d="m298.84,305.29v-62.83c0-3.15-2.56-5.71-5.71-5.71h-22.85v-45.69h51.4c12.62,0,22.85,10.23,22.85,22.85v91.39"></path>
    <path class="verstoring-gasvoorziening-cls-2" d="m127.49,305.29v-62.83c0-3.15,2.56-5.71,5.71-5.71h22.85s0-45.69,0-45.69h-51.4c-12.62,0-22.85,10.23-22.85,22.85v91.39"></path>
    <rect class="verstoring-gasvoorziening-cls-2" x="201.74" y="156.79" width="22.85" height="22.85"></rect>
    <rect class="verstoring-gasvoorziening-cls-2" x="156.04" y="173.93" width="22.85" height="79.96"></rect>
    <rect class="verstoring-gasvoorziening-cls-2" x="247.43" y="173.93" width="22.85" height="79.96"></rect>
    <rect class="verstoring-gasvoorziening-cls-2" x="150.33" y="82.54" width="125.66" height="22.85" rx="2" ry="2"></rect>
    <polygon class="verstoring-gasvoorziening-cls-2" points="258.85 105.39 167.47 105.39 201.74 156.79 224.58 156.79 258.85 105.39"></polygon>
    <line class="verstoring-gasvoorziening-cls-2" x1="213.16" y1="105.39" x2="213.16" y2="156.79"></line>
  </g>
</svg>