<svg id="prefix__incident-met-gevaardlijke-stoffen-icon" xmlns="http://www.w3.org/2000/svg" viewBox="0 0 430 430">
  <defs>
    <style>
      .prefix__incident-met-gevaardlijke-stoffen-cls-2 {
        fill: none;
        stroke: #fff;
        stroke-linecap: round;
        stroke-linejoin: round;
        stroke-width: 10px
      }
    </style>
  </defs>
  <circle cx="215" cy="215" r="210" fill="#a70240" />
  <path class="prefix__incident-met-gevaardlijke-stoffen-cls-2"
    d="M303.97 105.1c0 3.06-1.23 5.85-3.29 7.85-2 2.06-4.79 3.29-7.85 3.29h-5.57v94.68h-49.18l-23.22-40.27-23.22 40.27h-49.18v-94.68h-5.57c-6.13 0-11.14-5.01-11.14-11.14 0-3.06 1.23-5.85 3.29-7.85 2-2.06 4.79-3.29 7.85-3.29h155.95c6.13 0 11.14 5.01 11.14 11.14z" />
  <path class="prefix__incident-met-gevaardlijke-stoffen-cls-2"
    d="M191.63 210.92l-12.87 22.28h-41.88c-6.15 0-11.14-4.99-11.14-11.14s4.99-11.14 11.14-11.14h54.75zM303.97 222.06c0 6.15-4.99 11.14-11.14 11.14h-41.88l-12.87-22.28h54.75c6.15 0 11.14 4.99 11.14 11.14zM303.97 339.02c0 3.06-1.23 5.85-3.29 7.85-2 2.06-4.79 3.29-7.85 3.29H136.88c-6.13 0-11.14-5.01-11.14-11.14 0-3.06 1.23-5.85 3.29-7.85 2-2.06 4.79-3.29 7.85-3.29h5.57V233.2h36.31l-16.82 29.13h105.82l-16.82-29.13h36.31v94.68h5.57c6.13 0 11.14 5.01 11.14 11.14z" />
  <path class="prefix__incident-met-gevaardlijke-stoffen-cls-2"
    d="M267.77 262.33H161.95l16.82-29.13 12.86-22.28 23.23-40.26 23.22 40.26 12.87 22.28 16.82 29.13zM214.86 210.92v16.71M142.45 116.24h122.53M164.73 327.88h122.53" />
</svg>