<svg class="inline-block" id="overstroming-icon" xmlns="http://www.w3.org/2000/svg" viewBox="0 0 430 430">
  <defs>
    <style>
      .overstroming-cls-1 {
        fill: #007a4d;
      }

      .overstroming-cls-2 {
        fill: none;
        stroke: #fff;
        stroke-linecap: round;
        stroke-linejoin: round;
        stroke-width: 10px;
      }
    </style>
  </defs>
  <circle class="overstroming-cls-1" cx="215" cy="215" r="210"></circle>
  <g>
    <path class="overstroming-cls-2" d="m102.39,236.29c14.05,0,14.05,9.01,28.15,9.01,5.04,0,8.27-1.17,11.02-2.64,4.85-2.69,8.13-6.36,17.14-6.36,14.05,0,14.05,9.01,28.1,9.01,1.37,0,2.6-.1,3.72-.24,10.53-1.42,11.75-8.76,24.43-8.76s13.95,7.39,24.53,8.76c1.08.15,2.3.24,3.62.24,14.05,0,14.05-9.01,28.15-9.01,9.06,0,12.29,3.72,17.19,6.36,2.69,1.47,5.92,2.64,10.97,2.64,14.1,0,14.1-9.01,28.2-9.01"></path>
    <path class="overstroming-cls-2" d="m102.39,265.67c14.05,0,14.05,9.01,28.15,9.01,5.04,0,8.27-1.17,11.02-2.64,4.85-2.69,8.13-6.36,17.14-6.36,14.05,0,14.05,9.01,28.1,9.01,1.37,0,2.6-.1,3.72-.24,10.53-1.42,11.75-8.76,24.43-8.76s13.95,7.39,24.53,8.76c1.08.15,2.3.24,3.62.24,14.05,0,14.05-9.01,28.15-9.01,9.06,0,12.29,3.72,17.19,6.36,2.69,1.47,5.92,2.64,10.97,2.64,14.1,0,14.1-9.01,28.2-9.01"></path>
    <path class="overstroming-cls-2" d="m102.39,295.05c14.05,0,14.05,9.01,28.15,9.01,5.04,0,8.27-1.17,11.02-2.64,4.85-2.69,8.13-6.36,17.14-6.36,14.05,0,14.05,9.01,28.1,9.01,1.37,0,2.6-.1,3.72-.24,10.53-1.42,11.75-8.76,24.43-8.76s13.95,7.39,24.53,8.76c1.08.15,2.3.24,3.62.24,14.05,0,14.05-9.01,28.15-9.01,9.06,0,12.29,3.72,17.19,6.36,2.69,1.47,5.92,2.64,10.97,2.64,14.1,0,14.1-9.01,28.2-9.01"></path>
    <polyline class="overstroming-cls-2" points="121.98 162.85 215 94.31 308.02 162.85"></polyline>
    <line class="overstroming-cls-2" x1="141.56" y1="242.66" x2="141.56" y2="172.65"></line>
    <line class="overstroming-cls-2" x1="288.44" y1="242.66" x2="288.44" y2="172.65"></line>
  </g>
  <rect class="overstroming-cls-2" x="175.34" y="170.21" width="39.61" height="39.61"></rect>
</svg>