<svg class="inline-block" id="scheepvaartincidenten-icon" xmlns="http://www.w3.org/2000/svg" viewBox="0 0 430 430">
    <defs>
        <style>
            .scheepvaartincidenten-cls-2 {
                fill: none;
                stroke: #fff;
                stroke-linecap: round;
                stroke-linejoin: round;
                stroke-width: 10px
            }
        </style>
    </defs>
    <circle cx="215" cy="215" r="210" style="fill:#007a4d" />
    <path class="scheepvaartincidenten-cls-2"
        d="M337.07 320.68c-15.68 0-15.68 10.02-31.35 10.02-3.43 0-6.15-.49-8.38-1.25-8-2.67-10.67-8.76-22.92-8.76-15.68 0-15.68 10.02-31.3 10.02s-15.62-10.02-31.3-10.02-15.62 10.02-31.3 10.02-15.62-10.02-31.24-10.02c-12.19 0-14.91 6.1-22.92 8.71-2.23.82-4.95 1.31-8.38 1.31-15.68 0-15.68-10.02-31.3-10.02" />
    <path class="scheepvaartincidenten-cls-2"
        d="m337.07 259.94-39.74 69.51c-8-2.67-10.67-8.76-22.92-8.76-15.68 0-15.68 10.02-31.3 10.02s-15.62-10.02-31.3-10.02-15.62 10.02-31.3 10.02-15.62-10.02-31.24-10.02c-12.19 0-14.91 6.1-22.92 8.71l-39.68-69.46h250.39ZM315.29 259.94H211.87V80.31l1.66 1.34A284.01 284.01 0 0 1 315.3 259.93h0ZM108.45 259.94h103.42V151.07l-8.39 4.2a195.471 195.471 0 0 0-95.03 104.67h0Z" />
</svg>