<svg class="inline-block" id="spoorvervoerincidenten-icon" xmlns="http://www.w3.org/2000/svg" viewBox="0 0 430 430">
    <defs>
        <style>
            .spoorvervoerincidenten-cls-2{fill:none;stroke:#fff;stroke-linecap:round;stroke-linejoin:round;stroke-width:10px}
        </style>
    </defs>
    <circle cx="215" cy="215" r="210" style="fill:#747f81"/>
    <path class="spoorvervoerincidenten-cls-2" d="m265.08 268.71 20.68 31.05 15.13 22.66 18.86 28.33M93.12 350.75l18.87-28.33 15.13-22.66 20.68-31.05"/>
    <path class="spoorvervoerincidenten-cls-2" d="M300.89 322.42h-188.9l15.13-22.66h158.64l15.13 22.66zM285.76 107.12V246.1c0 11.27-8.27 20.85-19.43 22.44l-53.48 7.65c-4.25.62-8.56.62-12.8 0l-53.48-7.65c-11.16-1.59-19.43-11.16-19.43-22.44V107.12l2.89-.62 36.09-7.71c26.57-5.72 54.11-5.72 80.68 0l36.09 7.71 2.89.62Z"/>
    <path class="spoorvervoerincidenten-cls-2" d="M127.12 212.11c0 11.27 8.27 20.85 19.43 22.44l42.89 6.12M223.43 240.67l42.89-6.12c11.16-1.59 19.43-11.16 19.43-22.44M189.44 231.77h33.99v22.66h-33.99zM282.87 106.5l-10.14 31.84-12.79 40.21c-1.5 4.7-5.86 7.9-10.8 7.9h-85.41c-4.94 0-9.3-3.19-10.8-7.9l-12.79-40.21L130 106.5l36.09-7.71c26.57-5.72 54.11-5.72 80.68 0l36.09 7.71Z"/>
    <path class="spoorvervoerincidenten-cls-2" d="m272.73 138.34-12.79 40.21c-1.5 4.7-5.86 7.9-10.8 7.9h-85.41c-4.94 0-9.3-3.19-10.8-7.9l-12.79-40.21 25.95-5.55c26.57-5.72 54.11-5.72 80.68 0l25.95 5.55ZM240.43 209.11h0M257.43 209.11h0M172.44 209.11h0M206.44 112.79h0M155.44 209.11h0"/>
</svg>
