<svg class="inline-block" id="verstoring-drinkwatervoorziening-icon" xmlns="http://www.w3.org/2000/svg" viewBox="0 0 430 430">
    <defs>
        <style>
            .verstoring-drinkwatervoorziening-cls-2{fill:none;stroke:#fff;stroke-linecap:round;stroke-linejoin:round;stroke-width:10px}
        </style>
    </defs>
    <circle cx="215" cy="215" r="210" style="fill:#ae7d5b"/>
    <path class="verstoring-drinkwatervoorziening-cls-2" d="M111.63 205.14h36.91v42.18h-36.91zM333.1 247.32v21.09h-42.18v-10.55c0-5.82-4.72-10.55-10.55-10.55h-47.46v-42.18h58c23.3 0 42.18 18.89 42.18 42.18Z"/>
    <path class="verstoring-drinkwatervoorziening-cls-2" d="M90.54 178.77h17.09c2.21 0 4 1.79 4 4v86.91c0 2.21-1.79 4-4 4H90.54v-94.91h0Z"/>
    <rect class="verstoring-drinkwatervoorziening-cls-2" x="148.54" y="189.32" width="84.37" height="73.82" rx="10.55" ry="10.55"/>
    <path class="verstoring-drinkwatervoorziening-cls-2" d="M201.27 139.01v29.21h-21.09v-29.21c3.11 1.79 6.7 2.85 10.55 2.85s7.43-1.05 10.55-2.85Z"/>
    <path class="verstoring-drinkwatervoorziening-cls-2" d="M269.82 120.77h0c0 8.55-7.25 15.3-15.78 14.69l-45.6-3.25c-1.79 2.79-4.27 5.11-7.17 6.8-3.11 1.79-6.7 2.85-10.55 2.85s-7.43-1.05-10.55-2.85c-2.9-1.69-5.38-4.01-7.17-6.8l-45.6 3.25c-8.53.61-15.78-6.15-15.78-14.69h0c0-8.55 7.25-15.3 15.78-14.69l45.6 3.25c3.74-5.8 10.28-9.65 17.72-9.65s13.97 3.85 17.72 9.65l45.6-3.25c8.53-.61 15.78 6.15 15.78 14.69ZM169.64 168.22h42.18v21.09h-42.18zM333.1 321.14c0 11.65-9.44 21.09-21.09 21.09s-21.09-9.44-21.09-21.09c0-15.82 21.09-31.64 21.09-31.64s21.09 15.82 21.09 31.64Z"/>
</svg>
