<svg class="inline-block" id="verstoring-voedselvoorziening-icon" xmlns="http://www.w3.org/2000/svg" viewBox="0 0 430 430">
    <defs>
        <style>
            .verstoring-voedselvoorziening-cls-2{fill:none;stroke:#fff;stroke-linecap:round;stroke-linejoin:round;stroke-width:10px}
        </style>
    </defs>
    <circle cx="215" cy="215" r="210" style="fill:#ae7d5b"/>
    <path class="verstoring-voedselvoorziening-cls-2" d="M290.26 213.35c-5.74 4.17-9.18 10.77-8.49 17.83l8.16 84.11c1.29 13.25-9.13 24.71-22.42 24.71s-23.71-11.46-22.42-24.71l8.16-84.11c.68-7.06-2.76-13.67-8.49-17.83-13.11-9.52-21.89-26.99-21.89-46.99 0-30.16 19.99-54.57 44.65-54.57s44.65 24.41 44.65 54.57c0 19.99-8.78 37.46-21.89 46.99Z"/>
    <path class="verstoring-voedselvoorziening-cls-2" d="M267.5 131.64c13.44 0 24.81 15.9 24.81 34.73M185.64 111.8c4.11 0 7.44 3.33 7.44 7.44v57.05c0 16.07-8.48 30.16-21.23 38-6.3 3.87-9.67 11.16-8.98 18.55l7.99 82.45c1.29 13.25-9.13 24.71-22.42 24.71s-23.71-11.46-22.42-24.71l7.99-82.45c.69-7.39-2.68-14.68-8.98-18.55-12.75-7.84-21.23-21.93-21.23-38v-57.05c0-4.11 3.33-7.44 7.44-7.44h0c4.11 0 7.44 3.33 7.44 7.44v42.17c0 5.48 4.44 9.92 9.92 9.92h0c5.48 0 9.92-4.44 9.92-9.92v-39.69c0-5.48 4.44-9.92 9.92-9.92h0c5.48 0 9.92 4.44 9.92 9.92v39.69c0 5.48 4.44 9.92 9.92 9.92h0c5.48 0 9.92-4.44 9.92-9.92v-42.17c0-4.11 3.33-7.44 7.44-7.44h0Z"/>
</svg>
