<svg class="inline-block" id="ziektegolf-icon" xmlns="http://www.w3.org/2000/svg" viewBox="0 0 430 430">
    <defs>
        <style>
            .verstoring-ziektegolf-cls-2{fill:none;stroke:#fff;stroke-miterlimit:10;stroke-width:7.53px}
        </style>
    </defs>
    <circle cx="215" cy="215" r="210" style="fill:#a90061"/>
    <path class="verstoring-ziektegolf-cls-2" d="M232.68 233.97c-17.41 0-33.78-6.78-46.09-19.09-12.31-12.31-19.09-28.68-19.09-46.09s6.78-33.78 19.09-46.09c25.41-25.41 66.77-25.41 92.18 0 12.31 12.31 19.09 28.68 19.09 46.09s-6.78 33.78-19.09 46.09c-12.31 12.31-28.68 19.09-46.09 19.09ZM185.83 125.13l-21.12-21.12M279.54 212.45l21.12 21.11M233.31 260.66V230.8M141.32 170.53h29.86M166.41 234.39l21.12-21.12M295.99 168.12h29.86M240.24 76.12v29.86M279.47 123.99l21.12-21.11"/>
    <path class="verstoring-ziektegolf-cls-2" d="M255.24 237.75c5.2 11.88 6.72 24.93 4.42 37.74-2.36 13.11-8.6 25.04-18.06 34.49-12.71 12.71-29.4 19.06-46.09 19.06s-33.38-6.35-46.09-19.06c-12.31-12.31-19.09-28.68-19.09-46.09s6.78-33.78 19.09-46.09a65.148 65.148 0 0 1 17.08-12.3M148.66 220.23l-21.12-21.12M242.37 307.55l21.12 21.12M200.66 325.9v29.86M134.01 270.15h-29.86M155.21 312.58l-21.11 21.11M258.82 263.22h29.86M208.55 193.22c-4.1 0-6.81-2.82-9.11-5.2-2.7-2.8-4.5-4.5-7.6-4.15-4.61.52-8.14-1.32-9.93-5.17-3.04-6.52-.08-17.61 6.34-23.75 5.36-5.12 12.26-6.04 18.94-2.54 5.55 2.91 9.67 8.26 11.31 14.67 1.28 5 5.17 20.2-5.02 24.92-1.84.85-3.47 1.21-4.93 1.21ZM252.03 215.04c-2.07 0-4.15-.79-5.73-2.37a13.201 13.201 0 0 1-3.56-12.31l1.74-7.72c.84-3.72 3.69-6.47 7.43-7.17 3.75-.71 7.4.82 9.53 3.98 4.56 6.76 3.68 15.85-2.08 21.61l-1.6 1.6a8.07 8.07 0 0 1-5.73 2.37ZM214.1 142.5h-.2c-2.74-.1-5.2-1.59-6.58-3.96l-2.05-3.54c-1.21-2.09-1.07-4.6.37-6.54 1.44-1.94 3.79-2.8 6.13-2.25 4.61 1.08 7.82 5.3 7.65 10.04l-.04 1.17a5.286 5.286 0 0 1-5.27 5.08ZM259.69 163.21c-.33 0-.66 0-.99-.02l-11.51-.49c-6.58-.28-13.22-4.43-15.45-9.64-1.24-2.89-.87-5.78 1.01-7.91 5.52-6.29 17.35-7.14 28.77-2.06l3.32 1.48c2.67 1.19 4.91 2.98 6.31 5.05 1.6 2.36 1.97 4.94 1.02 7.07-1.84 4.13-6.46 6.53-12.47 6.53ZM161.65 267.08l-9.61 9.61M185.59 280.31l-13.5 1.63M212.02 256.1l6.8 11.78M234.74 286.3l-5.58 12.39M197.29 293.5l9.61 9.61M192.63 245.02l-7.84 11.11M155.78 236.57l5.12 12.59M165.78 294.52l6.8 11.77"/>
</svg>
