<svg class="inline-block" id="verstoring-telecommunicatie-en-ict-icon" xmlns="http://www.w3.org/2000/svg" viewBox="0 0 430 430">
    <defs>
        <style>
            .verstoring-telecommunicatie-en-ict-cls-1{fill:#fff}
        </style>
    </defs>
    <circle cx="215" cy="215" r="210" style="fill:#ae7d5b"/>
    <path class="verstoring-telecommunicatie-en-ict-cls-1" d="M223.48 190.27c8.2-5.08 13.69-14.14 13.69-24.48 0-15.88-12.92-28.8-28.81-28.8s-28.81 12.92-28.81 28.8c0 10.34 5.49 19.39 13.69 24.48l-25.13 65.82c-.03.06-.09.1-.11.17-.04.09-.02.19-.06.29l-17.26 45.21c-.03.06-.09.1-.11.17-.04.09-.02.19-.06.29l-9.5 24.88c-1.07 2.8.33 5.94 3.14 7.01a5.42 5.42 0 0 0 7.01-3.13l7.52-19.7 44.25 18.77v26.54c0 3 2.43 5.43 5.43 5.43s5.43-2.43 5.43-5.43v-26.56l44.24-18.77 7.53 19.72a5.439 5.439 0 0 0 5.07 3.49c.64 0 1.3-.11 1.94-.36a5.434 5.434 0 0 0 3.14-7.01l-52.23-136.82Zm-20.54 74.91L180 255.45l22.94-60.1v69.83Zm33.79-9.75-22.93 9.73v-69.81l22.93 60.08Zm-28.36-107.58c9.9 0 17.95 8.05 17.95 17.95s-8.05 17.95-17.95 17.95-17.95-8.05-17.95-17.95 8.05-17.95 17.95-17.95ZM176.12 265.6l26.82 11.38v41.27l-40.37-17.13 13.56-35.51Zm37.67 52.62v-41.27l26.81-11.37 13.56 35.51-40.37 17.13Z"/>
    <path class="verstoring-telecommunicatie-en-ict-cls-1" d="M251.56 208.31c23.38-23.38 23.38-61.43 0-84.82l-7.68 7.68c9.28 9.28 14.38 21.61 14.38 34.73s-5.11 25.45-14.38 34.73l7.68 7.68Z"/>
    <path class="verstoring-telecommunicatie-en-ict-cls-1" d="m263.85 220.6 7.68 7.68c34.39-34.39 34.39-90.35 0-124.74l-7.68 7.68c30.16 30.16 30.16 79.23 0 109.38Z"/>
    <path class="verstoring-telecommunicatie-en-ict-cls-1" d="m291.8 83.26-7.68 7.68c20.02 20.03 31.05 46.65 31.05 74.97s-11.03 54.94-31.05 74.97l7.68 7.68c22.08-22.08 34.23-51.43 34.23-82.65s-12.16-60.57-34.23-82.65ZM165.18 208.31l7.68-7.68c-9.28-9.28-14.38-21.61-14.38-34.73s5.11-25.45 14.38-34.73l-7.68-7.68c-23.38 23.38-23.38 61.43 0 84.82Z"/>
    <path class="verstoring-telecommunicatie-en-ict-cls-1" d="m145.22 228.27 7.68-7.68c-30.16-30.16-30.16-79.23 0-109.38l-7.68-7.68c-34.39 34.39-34.39 90.35 0 124.74Z"/>
    <path class="verstoring-telecommunicatie-en-ict-cls-1" d="m132.61 90.93-7.68-7.68c-22.08 22.08-34.23 51.43-34.23 82.65s12.16 60.57 34.23 82.65l7.68-7.68c-20.02-20.03-31.05-46.65-31.05-74.97s11.03-54.94 31.05-74.97Z"/>
</svg>
