<svg class="inline-block" id="verstoring-openbare-orde-icon" xmlns="http://www.w3.org/2000/svg" viewBox="0 0 430 430">
    <defs>
        <style>
            .verstoring-openbare-orde-cls-2{fill:none;stroke:#fff;stroke-miterlimit:10;stroke-width:7px}
        </style>
    </defs>
    <circle cx="215" cy="215" r="210" style="fill:#6e267b"/>
    <path class="verstoring-openbare-orde-cls-2" d="M272.46 255.17c-10.81 0-19.61-8.8-19.61-19.61s8.8-19.61 19.61-19.61 19.61 8.8 19.61 19.61-8.8 19.61-19.61 19.61ZM252.85 328.94v-43.46M290.65 285.48v43.46M254.69 318.55c-5.17 0-13.85-1.82-13.85-14.03v-19.97c0-6.22 0-25.15 18.63-25.15h26.01c15.39 0 18.63 13.68 18.63 25.15v19.97c0 9.05-4.92 14.03-13.85 14.03M211.78 255.17c-10.81 0-19.61-8.8-19.61-19.61s8.8-19.61 19.61-19.61 19.61 8.8 19.61 19.61-8.8 19.61-19.61 19.61ZM192.16 328.94v-43.46M193.99 318.55c-8.93 0-13.85-4.98-13.85-14.03v-19.97c0-11.48 3.23-25.15 18.63-25.15h26.01c7.3 0 12.52 2.93 15.53 8.71M242.77 218.54c-10.81 0-19.61-8.8-19.61-19.61s8.8-19.61 19.61-19.61 19.61 8.8 19.61 19.61-8.8 19.61-19.61 19.61ZM182.08 218.54c-10.81 0-19.61-8.8-19.61-19.61s8.8-19.61 19.61-19.61 19.61 8.8 19.61 19.61-8.8 19.61-19.61 19.61ZM157.18 164.45H54.99v-59.67h102.19v59.67ZM100.24 211.93v-49.42M100.24 275.42v-27.09M149.25 255.17c-10.81 0-19.61-8.8-19.61-19.61s8.8-19.61 19.61-19.61 19.61 8.8 19.61 19.61-8.8 19.61-19.61 19.61Z"/>
    <path class="verstoring-openbare-orde-cls-2" d="M128.72 330.43v-51.39c0-1.72-.65-3.36-1.83-4.61l-35.82-38.16c-3.5-3.73-3.32-9.61.41-13.12 3.73-3.5 9.61-3.32 13.12.41l32.49 35.84h25.15c7.3 0 12.52 2.93 15.53 8.71M323.27 207.47l-12.93 47.7M272.46 192.76l15.61-57.59 98.63 26.74-15.61 57.59-98.63-26.74Z"/>
</svg>
