<svg class="inline-block" id="wegvervoerincidenten-icon" xmlns="http://www.w3.org/2000/svg" viewBox="0 0 430 430">
    <defs>
        <style>
            .wegvervoerincidenten-cls-1 {
                fill: #007a4d;
            }

            .wegvervoerincidenten-cls-2 {
                fill: none;
                stroke: #fff;
                stroke-linecap: round;
                stroke-linejoin: round;
                stroke-width: 10px;
            }
        </style>
    </defs>
    <circle class="wegvervoerincidenten-cls-1" cx="215" cy="215" r="210"></circle>
    <path class="wegvervoerincidenten-cls-2"
        d="m139.44,186.76c18.87-.6,45.91-.88,75.56-.88s58.92.31,77.85.93m-33.8,57.18c-.81.83-3.72,1.93-4.91,2.06-10.75,1.06-29.69,1.06-39.39,1.06s-28.66,0-39.37-1.06c-1.23-.13-4.14-1.23-4.95-2.06-3.29-3.04-4.68-14.88-4.68-14.88,4.03,2.84,93.93,2.84,97.97,0,0,0-1.39,11.84-4.68,14.88Zm-143.55-20.63c1.11-1.04,2.69-1.4,4.13-.87l11.07,4.01c1.82.63,3.66,1.2,5.54,1.65,3.95.99,6.82,4.37,7.39,8.38l1.2,8.86c-9.73-.54-17.4-1.12-22.79-1.53-3.92-.3-7.06-3.47-7.51-7.6l-.93-8.66c-.15-1.4.34-2.84,1.35-3.76l.54-.49Zm198.51,0c-1.11-1.04-2.69-1.4-4.13-.87l-11.07,4.01c-1.82.63-3.66,1.2-5.54,1.65-3.95.99-6.82,4.37-7.39,8.38l-1.2,8.86c9.73-.54,17.4-1.12,22.79-1.53,3.92-.3,7.06-3.47,7.51-7.6l.93-8.66c.15-1.4-.34-2.84-1.34-3.76l-.54-.49Zm-182.3,57.61v21.67c0,3.51-2.82,6.37-6.38,6.37h-21.95c-3.51,0-6.41-2.85-6.41-6.37v-40.95c-1.29-8.79-2.24-18.53-2.53-26.62.04-4.28.44-7.97,1.64-11.19.62-1.76,1.43-3.47,2.27-5.13,1.33-2.85,3.08-6.39,4.58-9.26,1.43-2.77,2.64-4.87,2.64-4.87.85-1.87,1.87-3.62,3.08-5.53l-17.39-4.06c-2.03-.48-3.47-2.28-3.47-4.38v-8.25c0-2.49,2.02-4.5,4.5-4.5h27.36m213.39,103.06h-43.41c-1.87,0-3.66-.52-5.24-1.54l-3.14-2.02c-1.58-.98-3.43-1.54-5.26-1.54h-121.95c-1.83,0-3.66.56-5.24,1.54l-3.14,2.02c-1.58,1.02-3.41,1.54-5.26,1.54h-43.41m22.66-103.06c9.55-21.02,19.1-38.66,26.34-43.74,1.72-1.25,5.86-2.2,10.61-2.86,2.45-.32,5.13-.62,7.44-.73,18.43-1.39,31.8-2.08,50.98-2.08s32.57.69,50.98,2.08c2.35.11,5.01.41,7.44.73,4.75.66,8.89,1.62,10.65,2.86,7.2,5.08,16.43,21.95,25.98,42.97.12.25.23.5.34.77h27.32c2.49,0,4.5,2,4.5,4.5v8.25c0,2.1-1.43,3.9-3.46,4.38l-17.39,4.06c1.25,1.91,2.23,3.66,3.1,5.53,0,0,1.18,2.1,2.64,4.87,1.46,2.86,3.22,6.41,4.54,9.26.89,1.66,1.64,3.37,2.27,5.13,1.25,3.22,1.62,6.91,1.66,11.17-.29,8.12-1.21,17.85-2.53,26.64v40.95c0,3.51-2.89,6.37-6.41,6.37h-21.92c-3.55,0-6.41-2.85-6.41-6.37v-21.67">
    </path>
</svg>