<svg xml:space="preserve" width="100" height="100" xmlns="http://www.w3.org/2000/svg"><path d="M53.242 77.402a16.541 16.541 0 0 1-3.65.404c-4.595 0-7.885-1.857-7.885-1.857v19.723a1.18 1.18 0 0 1-1.18 1.179h-23.65a1.179 1.179 0 0 1-1.178-1.18V81.646c0-2.454-.6-4.884-1.838-7.004-1.754-3.002-3.625-8.246.054-13.61 1.58 5.913 6.968 10.287 13.372 10.287 4.897 0 9.199-2.56 11.664-6.407l7.833 2.508a8.09 8.09 0 0 0 2.44.38c2.816 0 5.48-1.497 6.993-4.097l1.185-2.038a3.76 3.76 0 0 1 3.292-1.9c1.483 0 2.958.842 3.574 2.453.4 1.045.276 2.218-.222 3.22-1.69 3.407-5.893 10.855-10.804 11.965zm-.083-15.478 1.186-2.04a7.275 7.275 0 0 1 6.349-3.656c.193 0 .38.028.57.043l-3.692-15.713-11.655 2.738 4.858 20.674a4.672 4.672 0 0 0 2.384-2.046zM42.676 17.761c.066.28.21.52.389.73l7.636-1.793a1.76 1.76 0 0 0-.425-.134l-4.425-.754-1.519-6.467a1.769 1.769 0 0 0-3.443.81ZM27.287 67.78c5.69 0 10.318-4.629 10.318-10.32 0-5.689-4.628-10.318-10.318-10.318-5.69 0-10.318 4.63-10.318 10.319 0 5.69 4.629 10.319 10.318 10.319zm59.3-36.031-2.76-.238a1.747 1.747 0 0 0-.456.02l-7.566 1.32-3.108-4.413 2.054-2.01a1.769 1.769 0 1 0-2.473-2.528l-2.413 2.362 1.102 4.69c.102.437.12.876.099 1.313l2.492 3.539a1.77 1.77 0 0 0 1.75.723l2.852-.497 1.87 3.687a1.77 1.77 0 0 0 3.155-1.6l-1.38-2.722 1.948-.34 2.53.218a1.768 1.768 0 0 0 .304-3.524zM64.807 71.35c-2.409 3.868-5.542 7.528-9.284 9.018.104.004.207.015.313-.01l9.36-2.2a1.179 1.179 0 0 0 .878-1.417zm11.21-57.653a1.767 1.767 0 0 0 2.287-1.01 1.767 1.767 0 0 0-1.01-2.289l-2.032-.786.481-1.037 4.501-2.048a1.77 1.77 0 0 0-1.464-3.22l-5.096 2.32a1.77 1.77 0 0 0-.872.864l-1.106 2.38-3.894.21a1.77 1.77 0 0 0-1.524 1.053l-2.34 5.31a4.68 4.68 0 0 1 3.173 1.573l1.966-4.463 3.491-.188zm-11.29 6.163a1.18 1.18 0 0 0-1.417-.878l-8.235 1.934-.36-1.53-15.667 3.682.36 1.53-8.236 1.934a1.179 1.179 0 0 0-.878 1.418l2.796 11.9a1.18 1.18 0 0 0 1.418.879l8.235-1.935.36 1.53 15.667-3.682-.36-1.53 8.235-1.934a1.18 1.18 0 0 0 .878-1.417z" style="stroke-width:1.17902"/></svg>