<svg xml:space="preserve" width="100" height="100" xmlns="http://www.w3.org/2000/svg"><switch><g><path d="M88.3 81.6c-.9 0-1.9.2-2.7.5-.6-3.6-3.3-6.5-6.8-7.4-1.3 3.1-3.3 6.1-6.1 9-1.3 1.3-3 2.1-4.9 2.1-1.2 0-2.4-.3-3.4-.9-1.1-.6-2-1.6-2.5-2.6-.6 1.1-1.4 2-2.5 2.6-1 .6-2.2 1-3.5 1-1.8 0-3.6-.8-4.9-2.1-3.5-3.7-5.8-7.4-6.9-11.2-1.2-.6-2.5-.9-4-.9-1.9 0-3.6.6-5.1 1.5l-1-17.4c1.3.4 2.6.6 4 .6 7.5 0 13.6-6.1 13.6-13.6 0-1.5-.3-2.8-.7-4.1 3-2.5 5-6.2 5-10.4 0-7.4-5.9-13.3-13.2-13.5-1.8-5.3-6.8-9.2-12.8-9.2-5.9 0-10.9 3.9-12.8 9.2-7.3.1-13.2 6.1-13.2 13.4 0 4.2 2 8 5 10.4-.4 1.3-.7 2.7-.7 4.1 0 7.5 6.1 13.6 13.6 13.6 1.4 0 2.7-.2 4-.6l-1.3 19c-.8-.2-1.6-.4-2.5-.4-4.4 0-8.1 3.2-9 7.3-.4-.1-.8-.1-1.3-.1-5.1 0-9.2 4.1-9.2 9.2 0 .9.1 1.8.4 2.7.2.6.8 1 1.4 1h91.3c.6 0 1.2-.4 1.4-1 .3-.9.4-1.8.4-2.7.1-5-4-9.1-9.1-9.1z"/><path d="M55.3 55c-2.9 3.3-6.2 7.1-6.2 12.1 0 4.1 2.1 8.4 6.1 12.6.3.3.8.4 1.2.2.4-.2.5-.7.4-1.1-.5-1.2-.7-2.3-.7-3.5 0-2.8 1.6-5 3-7 1.2-1.7 2.2-3.1 2.2-4.7 2.1 2.1 3.3 6.6 3.2 9.6l-.1 1.3.9-1s1-1.1 1.3-2.5c1 1.7 1 3.6 1 4.2 0 1.1-.2 2.3-.7 3.5-.2.4 0 .9.4 1.1.2.1.3.1.5.1.3 0 .5-.1.7-.3 4.1-4.3 6.1-8.5 6.1-12.6 0-1.4 0-5.5-3.2-8.7-.2-.2-.6-.3-.9-.2-.3.1-.6.4-.5.8 0 1.4-.8 2.7-1.4 3.6-.2-5.2-2.9-13.1-8.1-16.2-.3-.2-.7-.2-1 .1-.3.2-.4.6-.3.9.8 2.3-1.4 4.8-3.9 7.7z"/></g></switch></svg>