<svg xml:space="preserve" fill-rule="evenodd" clip-rule="evenodd" stroke-linejoin="round" stroke-miterlimit="2" width="100" height="100" xmlns="http://www.w3.org/2000/svg"><path d="M69.516 15.2H53.541V5.614a3.196 3.196 0 0 0-6.39 0V15.2H31.175V5.614a3.196 3.196 0 0 0-6.39 0V15.2h-2.556a7.03 7.03 0 0 0-7.03 7.029v2.556H5.615a3.196 3.196 0 0 0 0 6.39H15.2v15.976H5.614a3.196 3.196 0 0 0 0 6.39H15.2v15.975H5.614a3.196 3.196 0 0 0 0 6.39H15.2v2.556a7.03 7.03 0 0 0 7.029 7.03h2.556v9.585a3.196 3.196 0 0 0 6.39 0v-9.585h15.976v9.585a3.196 3.196 0 0 0 6.39 0v-9.585h15.975v9.585a3.196 3.196 0 0 0 6.39 0v-9.585h2.556a7.03 7.03 0 0 0 7.03-7.03v-2.556h9.585a3.196 3.196 0 0 0 0-6.39h-9.585V53.541h9.585a3.196 3.196 0 0 0 0-6.39h-9.585V31.175h9.585a3.196 3.196 0 0 0 0-6.39h-9.585v-2.556a7.03 7.03 0 0 0-7.03-7.03h-2.556V5.615a3.196 3.196 0 0 0-6.39 0zm-38.34 43.469v10.208c0 1.863.74 3.652 2.057 4.972a7.044 7.044 0 0 0 4.971 2.057h24.283a7.044 7.044 0 0 0 4.972-2.057 7.044 7.044 0 0 0 2.057-4.972V58.67a22.25 22.25 0 0 0 3.195-11.518c0-12.343-10.023-22.366-22.365-22.366-12.343 0-22.366 10.023-22.366 22.366a22.27 22.27 0 0 0 3.195 11.521zM59.93 69.516h2.556c.17 0 .332-.067.45-.188a.628.628 0 0 0 .189-.45V57.744a3.2 3.2 0 0 1 .534-1.77 15.862 15.862 0 0 0 2.661-8.824c0-8.819-7.157-15.976-15.975-15.976-8.819 0-15.976 7.157-15.976 15.976 0 3.262.978 6.297 2.662 8.824a3.2 3.2 0 0 1 .533 1.77v11.132c0 .17.067.332.189.45a.628.628 0 0 0 .45.19h2.556V59.93a3.196 3.196 0 0 1 6.39 0v9.585h6.39V59.93a3.196 3.196 0 0 1 6.39 0zM43.157 40.76a3.995 3.995 0 0 1 3.994 3.994 3.995 3.995 0 0 1-3.994 3.994 3.995 3.995 0 0 1-3.994-3.994 3.995 3.995 0 0 1 3.994-3.994zm14.378 0a3.995 3.995 0 0 1 3.993 3.994 3.995 3.995 0 0 1-3.993 3.994 3.995 3.995 0 0 1-3.994-3.994 3.995 3.995 0 0 1 3.994-3.994z"/></svg>