<svg xml:space="preserve" width="100" height="100" xmlns="http://www.w3.org/2000/svg"><switch><g><path d="m62.8 41.2-5.6-1.7c-.7-.2-1.5.2-1.7.9l-.6 1.8c2.3 1.8 3.4 4.8 2.7 7.9-.8 3.2-3.5 5.5-6.7 5.8.1.4.5.8.9.9l5.6 1.7c.7.2 1.5-.2 1.7-.9L63.8 43c.2-.8-.2-1.6-1-1.8zm1.9-3.8-.9-.3.2-.5c.1-.4-.1-.9-.5-1L60 34.5c-.4-.1-.9.1-1 .5l-1 3 5 1.6.4-1.3.9.3c.2.1.4 0 .4-.2l.2-.6c0-.1-.1-.3-.2-.4z"/><circle transform="rotate(-72.716 67.593 38.993)" cx="67.6" cy="39" r="1.3"/><circle transform="rotate(-72.716 70.238 42.208)" cx="70.2" cy="42.2" r="1.3"/><circle transform="rotate(-72.716 71.595 37.847)" cx="71.6" cy="37.8" r="1.3"/><circle transform="rotate(-72.722 72.877 45.419)" cx="72.9" cy="45.4" r="1.3"/><circle transform="rotate(-72.722 74.234 41.058)" cx="74.2" cy="41.1" r="1.3"/><circle transform="rotate(-72.752 75.594 36.7)" cx="75.6" cy="36.7" r="1.3"/><path d="M54.7 49.3c.6-2.5-.9-5.1-3.5-5.7l-8.5-2.1c-3-8-4-9.3-4.4-9.7-.6-.8-2.9-3.5-5.8-5.3l-3.3-2c-1.7-1.1-3.9-1.4-5.9-.8-2 .6-3.6 2-4.5 3.8L17 31.2 8.4 47.5c-.8 1.5-.9 3.2-.3 4.7l8 20.2v19.3c0 3.1 2.5 5.7 5.7 5.7 3.1 0 5.7-2.5 5.7-5.7V71.4c0-.7-.1-1.4-.4-2.1l-4.5-11.5 9.8-16.7c.7 1.8 1.6 4 2.3 6 .5 1.5 1.8 2.6 3.3 3l11 2.7c.4.1.8.1 1.1.1 2.1.1 4-1.4 4.6-3.6z"/><circle transform="rotate(-9.015 38.291 15.057)" cx="38.3" cy="15.1" r="10"/><path d="M90.7 2.5h-6.8c-.8 0-1.5.7-1.5 1.5v92c0 .8.7 1.5 1.5 1.5h6.8c.8 0 1.5-.7 1.5-1.5V4c0-.8-.6-1.5-1.5-1.5z"/></g></switch></svg>