<svg xml:space="preserve" width="100" height="100" xmlns="http://www.w3.org/2000/svg"><path d="M39.65 97.65h34.855c2.704 0 5.107-2.404 5.107-5.108v-42.97H70.6v-9.614c0-1.201-1.202-2.403-2.404-2.403H45.956c-1.202 0-2.403 1.202-2.403 2.403v9.614h-9.014v42.965c0 2.704 2.404 5.108 5.108 5.108z" style="stroke-width:2.31106" transform="translate(4.013 .573)"/><path d="M11.706 9.912c-2.403 0-4.206 1.803-4.206 4.206v31.25c0 2.404 1.803 4.207 4.206 4.207h22.836V9.912Zm45.37 21.634c5.108 0 9.014-3.906 9.014-9.013 0-5.107-9.013-21.033-9.013-21.033s-9.013 15.923-9.013 21.03c0 5.11 4.206 9.016 9.013 9.016z" style="stroke-width:2.31106" transform="translate(4.013 .573)"/></svg>